<svg xmlns="http://www.w3.org/2000/svg" width="100" height="100" fill="none"><path fill="#563D7C" d="M0 87.106C0 94.228 5.773 100 12.894 100h74.212C94.228 100 100 94.227 100 87.106V12.895C100 5.772 94.227 0 87.106 0H12.895C5.773 0 0 5.773 0 12.894v74.212Z"/><path fill="#fff" d="M41.468 44.234V30.072h12.465c1.188 0 2.333.1 3.435.297 1.102.198 2.078.55 2.926 1.06a5.652 5.652 0 0 1 2.035 2.12c.508.904.763 2.063.763 3.476 0 2.544-.763 4.382-2.29 5.513-1.526 1.13-3.476 1.696-5.85 1.696H41.467ZM28.154 19.727v60.546h29.341c2.714 0 5.357-.339 7.93-1.017 2.571-.679 4.86-1.724 6.868-3.138 2.007-1.413 3.604-3.236 4.791-5.47 1.188-2.232 1.78-4.875 1.78-7.928 0-3.788-.918-7.024-2.755-9.71-1.838-2.685-4.622-4.565-8.353-5.639 2.713-1.3 4.763-2.968 6.148-5.003 1.385-2.035 2.078-4.579 2.078-7.632 0-2.827-.467-5.2-1.4-7.123-.932-1.922-2.247-3.463-3.943-4.622-1.696-1.159-3.73-1.993-6.105-2.501-2.375-.51-5.004-.763-7.887-.763H28.155Zm13.314 50.2v-16.62h14.5c2.884 0 5.202.664 6.955 1.993 1.752 1.329 2.629 3.547 2.629 6.657 0 1.583-.27 2.883-.806 3.9-.537 1.018-1.258 1.824-2.163 2.417-.904.594-1.95 1.018-3.137 1.272-1.188.254-2.431.382-3.732.382H41.468Z"/></svg>